<?xml version="1.0" standalone="no"?>
<!DOCTYPE svg PUBLIC "-//W3C//DTD SVG 20010904//EN"
 "http://www.w3.org/TR/2001/REC-SVG-20010904/DTD/svg10.dtd">
<svg version="1.0" xmlns="http://www.w3.org/2000/svg"
 width="1024.000000pt" height="1024.000000pt" viewBox="0 0 1024.000000 1024.000000"
 preserveAspectRatio="xMidYMid meet">
<metadata>
Created by potrace 1.11, written by Peter Selinger 2001-2013
</metadata>
<g transform="translate(0.000000,1024.000000) scale(0.100000,-0.100000)"
fill="#000000" stroke="none">
<path d="M1914 9536 c-38 -78 -146 -290 -238 -472 l-169 -331 -286 -146 c-157
-80 -370 -188 -472 -240 l-186 -94 261 -133 c143 -73 353 -180 466 -237 113
-58 210 -110 216 -116 11 -11 213 -405 402 -780 l79 -158 106 208 c58 114 166
327 240 472 l135 264 338 172 c187 94 399 202 473 240 l133 68 -68 34 c-341
170 -861 437 -871 447 -6 6 -71 128 -144 271 -201 396 -341 670 -342 671 -1 1
-34 -62 -73 -140z"/>
<path d="M7490 9664 c-95 -20 -148 -42 -215 -90 -73 -52 -6606 -6587 -6628
-6629 -40 -79 -55 -115 -66 -161 -37 -153 -10 -316 75 -455 28 -46 234 -258
809 -834 424 -424 796 -790 826 -813 181 -136 452 -156 631 -45 21 13 41 23
45 23 16 0 6589 6583 6619 6628 124 191 118 450 -15 641 -64 92 -1574 1600
-1654 1652 -118 77 -293 111 -427 83z m559 -1615 l452 -452 -28 -31 c-15 -17
-31 -33 -35 -36 -10 -8 -1051 -1037 -1281 -1267 l-202 -201 -446 445 -447 446
308 311 c632 637 1091 1103 1152 1167 35 37 66 67 69 68 4 1 210 -202 458
-450z"/>
<path d="M4544 9660 c-5 -8 -70 -135 -144 -283 l-136 -269 -194 -99 c-107 -54
-202 -100 -210 -104 -8 -3 -49 -23 -90 -44 l-75 -38 286 -143 285 -143 142
-284 141 -285 22 44 c12 24 76 151 143 283 l121 240 285 144 285 144 -284 142
-284 142 -142 283 c-101 202 -144 279 -151 270z"/>
<path d="M8180 4408 c-40 -79 -148 -291 -240 -472 l-167 -329 -234 -119 c-129
-66 -341 -174 -472 -240 l-238 -121 53 -27 c121 -61 749 -382 817 -418 l73
-38 107 -209 c59 -116 165 -322 235 -460 70 -137 131 -253 135 -258 4 -4 75
127 159 290 83 164 190 375 238 468 l87 171 236 120 c598 304 701 358 694 365
-4 4 -125 67 -268 139 -476 242 -650 332 -661 344 -9 9 -311 597 -449 874
l-32 63 -73 -143z"/>
</g>
</svg>
